<svg xmlns="http://www.w3.org/2000/svg" viewBox="0 0 284.88 284.88"><defs><style>.cls-1{fill:#fff;}</style></defs><title>Asset 6</title><g id="Layer_2" data-name="Layer 2"><g id="Layer_1-2" data-name="Layer 1"><path class="cls-1" d="M218.18,49.52a17.36,17.36,0,1,0,17.37,17.36A17.38,17.38,0,0,0,218.18,49.52Z"/><path class="cls-1" d="M142.44,69.07a73.38,73.38,0,1,0,73.37,73.37A73.48,73.48,0,0,0,142.44,69.07Zm0,115.75a42.37,42.37,0,1,1,42.38-42.38A42.43,42.43,0,0,1,142.44,184.82Z"/><path class="cls-1" d="M213,0H71.87A72,72,0,0,0,0,71.88V213a71.94,71.94,0,0,0,71.87,71.87H213A71.93,71.93,0,0,0,284.88,213V71.88A72,72,0,0,0,213,0Zm40.86,213A40.92,40.92,0,0,1,213,253.89H71.87A40.9,40.9,0,0,1,31,213V71.88A40.88,40.88,0,0,1,71.87,31H213a40.9,40.9,0,0,1,40.86,40.86Z"/></g></g></svg>