<svg xmlns="http://www.w3.org/2000/svg" viewBox="0 0 186.98 225.68"><defs><style>.cls-1{fill:#fff;}</style></defs><title>Asset 1</title><g id="Layer_2" data-name="Layer 2"><g id="Layer_1-2" data-name="Layer 1"><path id="_Compound_Path_" data-name="&lt;Compound Path&gt;" class="cls-1" d="M20.33,23.41l3.76-3.22a2,2,0,0,1,2.79.22l23.06,27a1.73,1.73,0,0,1-.19,2.46l-3.58,3.06a1.72,1.72,0,0,1-2.46-.19L32.31,39.38a.27.27,0,0,0-.47.24L34.6,50A2.07,2.07,0,0,1,34,52l-3.29,2.8a1.94,1.94,0,0,1-2.13.31l-9.86-4.28a.27.27,0,0,0-.31.42L29.79,64.66a1.74,1.74,0,0,1-.19,2.46L26,70.19a1.76,1.76,0,0,1-2.46-.2L.47,43a2,2,0,0,1,.22-2.79l3.8-3.25a2,2,0,0,1,2.1-.28l18.18,8.22a.26.26,0,0,0,.36-.31L19.69,25.46A1.93,1.93,0,0,1,20.33,23.41Z"/><path id="_Compound_Path_2" data-name="&lt;Compound Path&gt;" class="cls-1" d="M109,6.42,99,18.79a.74.74,0,0,0-.06.84l9,14.58a2,2,0,0,1-.68,2.8l-3.52,2.19a2,2,0,0,1-2.79-.69l-7.44-12a.45.45,0,0,0-.71-.06.57.57,0,0,0-.08.24l-.34,10.77a2,2,0,0,1-2.08,1.95l-4.16-.13a2,2,0,0,1-2-2.08L85.28,1.92a2,2,0,0,1,2-1.92L91.6.13a2,2,0,0,1,1.88,2l-.29,9.27a.54.54,0,0,0,.94.35l8.49-10.56A1.91,1.91,0,0,1,105.36,1l3.33,2.68A2,2,0,0,1,109,6.42Z"/><path id="_Compound_Path_3" data-name="&lt;Compound Path&gt;" class="cls-1" d="M166,64.36a2.11,2.11,0,0,1-.58,2.69l-3.16,2.48a2.13,2.13,0,0,1-3.11-.58,19.36,19.36,0,0,1-.44-19.19.9.9,0,0,0-.19-1.14l-1.21-1.09a.93.93,0,0,0-1.34.06l-7.51,8.27a2.12,2.12,0,0,1-3,.14l-3-2.69a2.12,2.12,0,0,1-.14-3l23.63-26a2,2,0,0,1,2.83-.11l2.43,2.22.06.05,6.89,6.26,0,0c4.72,4.34,4.83,12,.22,17.07a12.73,12.73,0,0,1-12.12,4,.52.52,0,0,0-.63.28,10.94,10.94,0,0,0-1.14,5A11.17,11.17,0,0,0,166,64.36Zm6.39-20c1.6-1.76,1.7-4.23.27-5.53l-3.93-3.57a1.11,1.11,0,0,0-1.57.07L162.87,40a1.1,1.1,0,0,0,.1,1.54l3.93,3.57C168.34,46.41,170.79,46.07,172.39,44.31Z"/><path id="_Compound_Path_4" data-name="&lt;Compound Path&gt;" class="cls-1" d="M160,166.74l-10.22,9.54a1.55,1.55,0,0,1-2.19-.08l-3.49-3.73a1.56,1.56,0,0,1,.08-2.19l15.55-14.51a1.75,1.75,0,0,1,2.46.09L186.5,182a1.85,1.85,0,0,1-.09,2.57l-3.33,3.11a1.82,1.82,0,0,1-2.58-.09l-19.38-20.76A.85.85,0,0,0,160,166.74Z"/><path id="_Compound_Path_5" data-name="&lt;Compound Path&gt;" class="cls-1" d="M91.34,224.44,78.73,190.25a2,2,0,0,1,1.14-2.44l4.14-1.5a1.87,1.87,0,0,1,2.43,1.1l2,5.51a.49.49,0,0,0,.48.35l12.64-.24a.51.51,0,0,0,.5-.37l1.8-5.58a1.88,1.88,0,0,1,2.4-1.19l4.22,1.34a1.88,1.88,0,0,1,1.19,2.4l-11.19,34.6a1.92,1.92,0,0,1-1.8,1.3l-5.58.15A1.9,1.9,0,0,1,91.34,224.44Zm7.25-23.15-6.22.11a.55.55,0,0,0-.5.73l3.3,8.93a.52.52,0,0,0,1,0l2.92-9A.53.53,0,0,0,98.59,201.29Z"/><path id="_Compound_Path_6" data-name="&lt;Compound Path&gt;" class="cls-1" d="M17.94,163.83a12.1,12.1,0,0,1,16.8-1.16L45,171.91a2.19,2.19,0,0,1,.16,3.07L21.88,201a2.2,2.2,0,0,1-3.08.16l-9.31-8.36,0,0a11.81,11.81,0,0,1-.81-16.54,11.5,11.5,0,0,1,6.26-3.59A11.93,11.93,0,0,1,17.94,163.83Zm-2.89,22.85,3.89,3.5a1.2,1.2,0,0,0,1.68-.09l3.12-3.48a1.22,1.22,0,0,0-.09-1.68l-3.83-3.44a3.58,3.58,0,0,0-4.83,0A3.52,3.52,0,0,0,15.05,186.68Zm9-17.37a3.69,3.69,0,0,0,.16,5.1l4.93,4.42a1.22,1.22,0,0,0,1.68-.1l3.44-3.83a1.23,1.23,0,0,0-.07-1.71l-4.92-4.41A3.89,3.89,0,0,0,24,169.31Z"/><g id="_Group_" data-name="&lt;Group&gt;"><path id="_Path_" data-name="&lt;Path&gt;" class="cls-1" d="M179.65,112.34a3,3,0,1,1-3.05-3,3,3,0,0,1,3.05,3"/></g><g id="_Group_2" data-name="&lt;Group&gt;"><path id="_Path_2" data-name="&lt;Path&gt;" class="cls-1" d="M7.83,113.11a3,3,0,1,1-3-3,3,3,0,0,1,3.05,3"/></g></g></g></svg>